<?xml version="1.0" standalone="no"?><!DOCTYPE svg PUBLIC "-//W3C//DTD SVG 1.1//EN" "http://www.w3.org/Graphics/SVG/1.1/DTD/svg11.dtd"><svg t="1735037777604" class="icon" viewBox="0 0 1024 1024" version="1.1" xmlns="http://www.w3.org/2000/svg" p-id="5650" xmlns:xlink="http://www.w3.org/1999/xlink" width="200" height="200"><path d="M713.728 674.432l132.650667 133.546667c5.973333 5.973333 12.074667 18.218667 0 30.336-12.074667 12.16-27.52 2.645333-30.122667 0l-132.693333-133.546667c-49.621333 35.2-113.792 56.149333-174.762667 56.106667A295.253333 295.253333 0 0 1 213.333333 465.749333 295.253333 295.253333 0 0 1 508.8 170.666667c163.2 0 295.509333 132.096 295.509333 295.082666 0.085333 75.221333-38.656 154.026667-90.581333 208.682667zM508.8 217.514667a248.32 248.32 0 0 0-248.448 248.149333 248.32 248.32 0 0 0 248.490667 248.106667 248.234667 248.234667 0 0 0 248.405333-248.106667 248.32 248.32 0 0 0-248.448-248.149333z m21.930667 271.274666v115.754667a22.186667 22.186667 0 0 1-21.973334 22.613333 22.272 22.272 0 0 1-21.973333-22.613333v-115.754667H370.346667a22.272 22.272 0 1 1 0-44.586666h116.394666V331.605333a22.186667 22.186667 0 0 1 21.973334-22.613333c12.117333 0 21.973333 10.069333 21.973333 22.613333v112.597334h108.544a22.272 22.272 0 1 1 0 44.586666h-108.544z" fill="#bfbfbf" p-id="5651"></path></svg>