<?xml version="1.0" standalone="no"?><!DOCTYPE svg PUBLIC "-//W3C//DTD SVG 1.1//EN" "http://www.w3.org/Graphics/SVG/1.1/DTD/svg11.dtd"><svg t="1735113805966" class="icon" viewBox="0 0 1024 1024" version="1.1" xmlns="http://www.w3.org/2000/svg" p-id="3604" xmlns:xlink="http://www.w3.org/1999/xlink" width="200" height="200"><path d="M512.60587795 803.74429953c-96.64618895 0-193.29670561 0.01406502-289.94722224-0.01298311-24.42553692-0.00757348-25.03574258-0.65348265-25.04872566-25.66650478-0.02704812-68.86993058-0.31484016-137.74202499 0.30185705-206.60438207 0.09737324-11.18710363 2.41269257-23.16942208 6.89943519-33.37738368 30.49297185-69.37410758 62.11871909-138.25377546 92.66903294-207.61057225 5.75908633-13.07398069 13.45698212-17.84959728 27.70485135-17.79766487 127.32092418 0.46198194 254.64184837 0.47821081 381.96060869-0.01298311 14.60165867-0.0562601 21.67852954 5.49076897 27.04812293 18.52471842 28.64612602 69.53315054 58.22595324 138.67789004 86.9564694 208.17425515 3.64933273 8.82850732 5.91704735 18.90555599 5.97979901 28.42216755 0.49335778 71.18200411 0.317004 142.36617208 0.24451503 213.5535858-0.01947465 20.96770489-1.4887287 22.37312534-23.08827773 22.38719038-97.2261007 0.04760469-194.45328333 0.0216385-291.68154788 0.02163851z m-0.58748522-11.26175645c94.8988802 0 189.79343273-0.18392723 284.69014907 0.21097535 13.45049055 0.05409625 19.85873185-2.94608155 19.70185273-18.15145432-0.65456458-64.22306304-0.5561094-128.45910919-0.05409625-192.68325417 0.10602865-13.48186638-4.31688041-18.28994071-17.97834633-18.09735808-44.54717652 0.62318875-89.13546619 1.15333196-133.65018495-0.24559696-18.73136607-0.5864033-25.71627334 4.99632926-28.92309879 23.85428056-11.14274472 65.56032225-75.25112372 109.65633606-140.80170866 98.83925076-53.87986085-8.88909511-93.92731162-47.50732309-102.80775135-101.24869754-2.69615689-16.31975543-8.8804397-21.85704716-25.74115761-21.41021218-45.67778806 1.21824746-91.42265545 0.97806013-137.12208199 0.12117559-15.81341458-0.29428357-20.97852414 4.75181424-20.78485958 20.69289596 0.76059322 61.90449795 0.85255685 123.83388018-0.04760469 185.73405042-0.2520885 17.18962308 4.43913794 22.93897207 22.30496408 22.78209297 93.73472901-0.8255087 187.47594954-0.38300143 281.21392432-0.39814836zM295.24716221 552.72473578c30.83810589 0 56.18219706 0.75085589 81.45379926-0.2650716 16.82068669-0.67079345 23.11424392 4.56031352 23.94299841 22.42830353 2.6442245 57.20353419 53.7824876 102.82073445 112.94755168 102.90945228 60.38763922 0.08439015 111.76500775-45.37917677 114.23504231-103.35087766 0.78980519-18.48360526 8.12850189-22.53000446 24.38658763-21.95658426 25.20452286 0.88609651 50.46638774 0.2347777 79.83523958 0.23477771-8.44658782-26.73436468-15.21619203-49.85293631-23.45288642-72.43811894-1.26909794-3.47081513-9.31753738-6.32493307-14.2381319-6.34008-119.7398763-0.3472979-239.48408028-0.37218218-359.22720235 0.05517817-5.22028772 0.0216385-13.51432413 3.6688074-15.12531034 7.70979694-8.65648125 21.80619668-15.65220778 44.26695797-24.75768786 71.01322383z m218.39195404-90.39482677c59.06336312 0 118.13862742-0.21205727 177.20199053 0.17635377 12.13811565 0.0822263 18.01404986-3.04453672 17.75871558-16.51882965-0.65564651-35.31186543-0.5604371-70.64536935-0.04760469-105.96372632 0.18068146-12.2755201-4.85351517-15.965966-16.5047646-15.93675402-118.71745725 0.25100658-237.42950487 0.27156315-356.14479826-0.01406503-12.24306236-0.02704812-16.11527164 4.79833702-15.96163831 16.48420803 0.44034344 34.16177924 0.82118101 68.35493431-0.17635375 102.48750158-0.46198194 15.61325846 5.32198867 19.74729359 20.14976964 19.57418558 57.90137577-0.6686296 115.81573462-0.27264508 173.72468386-0.28995587z m302.81455529 90.1091986c-31.49483432-75.03149297-61.39058361-146.23729942-91.285251-217.45176127-1.48331905 0.29536551-2.96663811 0.590731-4.45320296 0.88285072-0.34188827 5.4669666-0.9639951 10.93609705-0.98455167 16.40630942-0.10819249 25.42198976 1.43030475 50.95866358-0.40031223 76.25190427-2.73618812 37.85655284 5.60437107 73.45404644 18.19256749 108.3850743 2.15519443 5.98629056 8.3632796 14.39933872 13.28603797 14.82020752 19.91607386 1.69645827 40.05935196 0.70541505 65.6447124 0.70541504z m-607.94226605 0.25208852c23.73094113 0 42.09661657-0.74436433 60.36708267 0.25317041 12.9614605 0.71082466 18.22177944-5.14238912 22.10372603-16.56318854 12.16516376-35.78250276 20.93957484-71.75975202 18.1157508-110.15618539-1.6456078-22.41207465-0.21746692-45.05027159-0.37759179-67.58784954-0.03353967-4.76587925-0.93911083-9.52418504-1.44220592-14.28573659-1.56121766-0.33647866-3.12243531-0.67403922-4.68365296-1.0159275-30.73640496 68.40145708-61.48038339 136.80291415-94.08419074 209.35571715zM555.57777178 876.55460065c28.50114809 2.20604491 55.42593155 6.34657156 82.22196598 5.63358304 17.28158668-0.46090001 35.07384195-6.34657156 51.31245301-13.02637599 10.97937406-4.52244616 15.32005681-3.79431068 22.02041782 6.10422037 11.91415719 17.60075454 24.71657473 35.07276003 39.73152873 50.00116001 23.39229863 23.25489415 52.6572857 35.08682504 86.62756421 35.48930111-29.48029013 15.08852489-60.60077843 24.07499325-93.21865082 26.43142573-6.3876847 0.45440847-15.27028828-5.88458962-19.65208417-11.63502056-7.3073209-9.5836909-14.88728686-10.57581607-25.51719917-7.94998428-12.28633935 3.03479939-24.9026658 5.41178843-37.4995176 6.26650911-6.39309433 0.43276997-13.65713822-1.96910335-19.51143395-5.02229546-39.41885241-20.61607929-65.72261099-53.59856038-86.51504404-92.29252308z m239.60309204 92.07397425c-3.80512994-4.63604826-4.5895255-6.52941686-5.93327624-7.10067324-36.58529105-15.42824931-62.62614188-42.37683514-84.04068175-74.96765938-2.50249233-3.80188416-12.08726517-6.61164315-16.47555264-4.92167645-28.69697648 11.07133767-57.74666049 15.62624156-88.24179618 9.97318387-7.01087346-1.30371953-14.28249082-1.20851013-22.77560142-1.86199278 23.59137281 42.40063748 61.83309092 88.62046992 121.97296931 68.22293947 12.65311189-4.29199614 21.50433963-1.12087421 30.5037911 8.95292869 4.8459417 5.41719806 14.43828801 9.4397949 21.73046196 9.20393525 13.51756991-0.42736034 26.92045577-4.43805602 43.25968586-7.50098543zM901.59467092 41.02618264c22.6879655 67.14209648 22.16647769 166.32972706-74.2990298 197.33228553 0-1.73107987-0.5950587-3.59848228 0.08547206-4.4986438 29.38832651-38.77294324 37.57200657-83.61873102 36.53660444-130.71600457-0.27480893-12.46161119 1.93772752-21.32906779 12.05264357-29.95633709 9.75788082-8.31675683 16.41929254-20.27527294 25.62430973-32.16130007zM853.65025015 211.0604206c45.21796997-11.23903603 61.62536132-104.66108872 40.44235339-143.98473174-7.48475657 10.69374588-19.73647434 20.17573584-19.91931964 29.88384812-0.72380778 38.3888599-4.6371302 75.81372468-20.52411567 114.10088362zM172.11328745 394.96818177c-3.63851349 10.22202661-7.80933404 21.94143731-11.95310648 33.59160482-30.2214087-6.16697203-52.29592277-29.96715634-62.72243319-68.23916834 11.844914 9.00918877 21.80403284 19.37402948 33.95080389 25.03466063 11.97366307 5.57948679 26.16527219 6.4049955 40.72581771 9.61182097zM717.36449611 185.87861817c12.16732762 21.91763497 5.78613445 53.37784769-15.50182021 77.55454188-1.38702775-8.54720685-4.35366586-15.07662373-2.88873951-20.37913774 2.58363669-9.34025781 8.67920168-17.65485079 11.79189966-26.90855461 3.02073436-8.95833831 4.14052665-18.55825809 6.59866006-30.26684953z" fill="#515151" p-id="3605"></path></svg>