<?xml version="1.0" standalone="no"?><!DOCTYPE svg PUBLIC "-//W3C//DTD SVG 1.1//EN" "http://www.w3.org/Graphics/SVG/1.1/DTD/svg11.dtd"><svg t="1735037623014" class="icon" viewBox="0 0 1024 1024" version="1.1" xmlns="http://www.w3.org/2000/svg" p-id="4596" xmlns:xlink="http://www.w3.org/1999/xlink" width="200" height="200"><path d="M401.306 419.84h374.988a43.042 43.042 0 0 1 42.906 42.906v282.828a43.042 43.042 0 0 1-42.906 42.906H401.306a43.042 43.042 0 0 1-42.906-42.906V462.746a43.042 43.042 0 0 1 42.906-42.906z m2.184 317.781a5.905 5.905 0 0 0 5.803 5.735h358.844a5.905 5.905 0 0 0 5.802-5.7V470.8c0-3.038-2.73-5.7-5.802-5.7H409.293c-3.072 0-5.803 2.662-5.803 5.7v266.854z" fill="#bfbfbf" p-id="4597"></path><path d="M647.953 284.843l-74.308-67.96a23.04 23.04 0 0 0-33.45 31.505l2.32 2.492 27.512 25.156c-190.396 1.195-310.818 93.526-355.636 273.818a23.04 23.04 0 1 0 44.715 11.093c39.765-159.88 142.234-238.421 313.003-238.83l-24.371 20.377a23.04 23.04 0 0 0 26.726 37.376l2.799-1.98 69.905-58.368a23.04 23.04 0 0 0 3.14-32.188l-2.355-2.491-74.308-67.96 74.308 67.96z" fill="#bfbfbf" p-id="4598"></path></svg>