<?xml version="1.0" standalone="no"?><!DOCTYPE svg PUBLIC "-//W3C//DTD SVG 1.1//EN" "http://www.w3.org/Graphics/SVG/1.1/DTD/svg11.dtd"><svg t="1735107544926" class="icon" viewBox="0 0 1024 1024" version="1.1" xmlns="http://www.w3.org/2000/svg" p-id="2731" xmlns:xlink="http://www.w3.org/1999/xlink" width="200" height="200"><path d="M557.8 196.9h128c11 0 20-9 20-20s-9-20-20-20h-128c-11 0-20 9-20 20s9 20 20 20zM411.5 619h30.7v70.3c0 22.1 17.9 40 40 40H542c22.1 0 40-17.9 40-40V619h30.7c15.2 0 29-8.5 35.8-22.1s5.4-29.5-3.7-41.7L544.1 418.7c-7.4-10.1-19-16-31.6-16.2-12.9-0.2-25.1 5.9-32.7 16.3L379.2 555.3c-9 12.2-10.3 28.3-3.4 41.8 6.8 13.5 20.5 21.9 35.7 21.9z m100.4-176.4L612.5 579h-50.6c-11 0-20 9-20 20v90.3h-59.7-0.1V599c0-11-9-20-20-20h-50.7l100.5-136.4z" fill="#006EF2" p-id="2732"></path><path d="M190.1 295.6v427.8c0 44.1 35.9 80 80 80h484.3c44.1 0 80-35.9 80-80V295.5c0-37-25.4-68.4-59.7-77.4v-69.2c0-6.7-0.8-13.3-2.4-19.6-9-35.6-40.9-60.4-77.6-60.4H329.2c-36.7 0-68.6 24.9-77.6 60.5a80.1 80.1 0 0 0-2.4 19.5v69.4c-32.8 8.9-57.2 38.1-59 73.2-0.1 1.3-0.1 2.7-0.1 4.1z m584.6-34.4c11.8 6.8 19.7 19.7 19.7 34.3v30.8c-6.1-3.5-12.7-6.3-19.7-8.1v-57zM289.2 149.1c0-3.5 0.4-6.8 1.2-10 4.5-17.8 20.4-30.2 38.8-30.2h365.5c18.3 0 34.3 12.4 38.8 30.2 0.8 3.2 1.2 6.4 1.2 9.8v166.6H520L479.4 277h206.4c11 0 20-9 20-20s-9-20-20-20H437.3l-16.9-16c-0.2-0.2-0.4-0.3-0.5-0.5-0.2-0.2-0.5-0.4-0.7-0.6-0.2-0.2-0.5-0.4-0.7-0.5-0.3-0.2-0.5-0.4-0.8-0.6-0.2-0.2-0.5-0.3-0.7-0.4-0.3-0.2-0.6-0.4-0.9-0.5-0.2-0.1-0.5-0.2-0.7-0.3-0.4-0.2-0.7-0.3-1.1-0.5-0.2-0.1-0.4-0.2-0.7-0.2-0.4-0.1-0.8-0.3-1.2-0.4-0.2-0.1-0.5-0.1-0.7-0.2l-1.2-0.3c-0.3-0.1-0.6-0.1-0.9-0.1s-0.6-0.1-1-0.1c-0.7-0.1-1.3-0.1-2-0.1H289.2v-66.6z m-59.1 146.4c0-0.7 0-1.4 0.1-2 1-18.7 15-34.3 33.2-37.4h0.2c0.5-0.1 1-0.2 1.5-0.2 0.2 0 0.3 0 0.5-0.1 0.5-0.1 0.9-0.1 1.4-0.1 0.2 0 0.4 0 0.7-0.1 0.4 0 0.9 0 1.3-0.1H398.8l99.5 94.5c3.7 3.5 8.6 5.5 13.8 5.5h242.4c22.1 0 40 17.9 40 40v327.8h-0.1c0 22.1-17.9 40-40 40H270.1c-22.1 0-40-17.9-40-40V295.5z" fill="#006EF2" p-id="2733"></path><path d="M980.1 509.4c-0.1-0.7-0.1-1.7-0.1-3.1 0-1.3 0-2.8-0.1-4.6 0-0.6 0-1.2-0.1-1.9v-1-0.6c0-1.7-0.1-3.4-0.2-5.1-0.1-1.5-0.1-2.9-0.2-4.4v-0.4C973 358.8 913.3 238.5 814.7 155v36.8c32.8 19.1 55 52.9 59 91.2 39 61.5 62 132.7 65.7 207.2 0 1.6 0.1 3.3 0.2 4.9 0.1 1.4 0.1 2.8 0.2 4.2 0 0.8 0 1.5 0.1 2.3v1c0 0.5 0 1 0.1 1.5v2.3c0 2 0 4.3 0.3 7.1 0 18.5-1.2 36.6-3.5 54l-1.2 8.7c0 0.3-0.1 0.6-0.1 0.9 0 0.1-0.1 0.5-0.3 1.7-0.1 0.3-0.1 0.7-0.1 1-0.2 1.6-0.5 3.5-0.9 5.4-0.2 1-0.4 2-0.5 3-0.2 1.1-0.4 2.3-0.6 3.4-0.4 2.4-0.8 4.7-1.3 6.8-1.1 4.8-2.2 9.8-3.3 14.7-2.8 11.6-6.2 23.5-10.6 36.4l-3.2 9.1c-8.5 23.2-18.9 45.7-31.1 66.8-1.7 3-3.4 5.8-5.1 8.5l-1.5 2.4c-0.4 0.6-0.8 1.3-1.2 1.9-0.3 0.4-0.5 0.8-0.8 1.3-0.8 1.2-1.5 2.4-2.3 3.6-0.9 1.4-1.8 2.8-2.8 4.2 0 0 0 0.1-0.1 0.1-10.2 15.6-21.7 30.8-34.2 45.1-3.2 3.7-6.6 7.5-10.1 11.2-0.1 0.1-0.2 0.2-0.3 0.4-2.2 2.4-4.5 4.9-6.7 7.1l-3.8 3.8c-5.1 5.1-10.1 9.9-14.8 14.1l-0.1 0.1c-0.6 0.5-1.1 1-1.7 1.5-0.7 0.6-1.3 1.2-2 1.8-1.3 1.1-2.6 2.3-3.9 3.4-0.9 0.8-1.9 1.6-2.8 2.4-0.3 0.3-0.7 0.6-1 0.9-13.1 11.1-27 21.5-41.1 30.8l-8.9 5.6-0.9 0.6c-4 2.5-8 4.9-12.3 7.4-9.3 5.3-18.5 10.2-27.5 14.5-0.1 0-0.2 0.1-0.3 0.1-0.6 0.3-1.2 0.6-1.8 0.8-1 0.5-2 0.9-2.9 1.4l-1.3 0.6c-1.3 0.6-2.3 1.1-3.3 1.5h-0.1c-1.4 0.6-2.8 1.2-4.3 1.8-1.3 0.6-2.7 1.2-4 1.7-8 3.4-16.1 6.5-24.9 9.7-1.5 0.4-2.8 0.9-3.9 1.3l-0.7 0.2c-15.3 5.2-30.8 9.6-46.1 12.9-2.1 0.4-4 0.8-5.8 1.2-0.7 0.1-1.4 0.3-2.1 0.4-0.7 0.1-1.5 0.3-2.2 0.4l-8.1 1.5c-0.3 0.1-0.6 0.1-0.9 0.2-0.6 0.1-1.5 0.3-2.4 0.4-0.1 0-0.3 0-0.4 0.1l-2.1 0.3c-1 0.1-2 0.3-3 0.4-0.2 0-0.4 0.1-0.6 0.1-0.9 0.2-2 0.3-3.2 0.5h-0.4c-4.9 0.8-10.4 1.4-16.9 2.1-2.5 0.3-5.5 0.5-8.2 0.7l-8 0.6c-0.7 0-1.2 0.1-1.6 0.1h-0.8c-2.9 0.2-5.7 0.4-8.3 0.5-0.5 0-0.9 0-1.3 0.1-0.9 0-1.8 0-2.6 0.1-0.9 0-1.8 0-2.7 0.1-3.4 0.2-6.9 0.2-10.6 0.2-18.5 0-36.9-1.2-54.8-3.4h-0.4c-1.5-0.2-3.3-0.4-4.8-0.7-0.1 0-0.3 0-0.4-0.1-12.4-1.7-24.8-4-36.9-6.9-17.4-4-34.5-9.1-50.7-15.2-40.5-14.9-78.4-35.9-112.7-62.3-5.7-4.4-11.2-8.9-16.7-13.5-27.1-23.1-51.3-49.5-71.9-78.6-3.8-5.3-7.4-10.7-10.9-16.2C107.4 674.3 84 594.8 84 512c0-67.6 15.3-132.3 45.5-192.3 6.4-12.8 13.6-25.3 21.3-37.4 2.5-23 11.5-44.5 26.3-62.6 9.1-11.2 20-20.5 32.1-27.7v-36.9c-47.7 40.6-87.3 90.8-115.4 146.5C60.8 367.3 44 438 44 512c0 97.6 29.8 191.2 86.1 270.5 27.1 38.2 59.7 72.1 96.8 100.6 37.5 28.9 79 51.8 123.2 68.1 17.8 6.6 36.5 12.2 55.5 16.6 13.2 3.1 26.8 5.7 40.4 7.5 1.9 0.3 4.1 0.6 6.4 0.9 19.5 2.5 39.5 3.7 59.6 3.7 3.9 0 7.9 0 12.2-0.2 0.8 0 1.6 0 2.4-0.1h1.7c0.6 0 1.8 0 3.3-0.1 2.8-0.1 5.6-0.3 8.3-0.5 0.7 0 1.2-0.1 1.6-0.1h0.9l8.5-0.6c3.3-0.2 6.6-0.6 9.4-0.8 7-0.7 13.2-1.5 18.7-2.3 1.6-0.2 3.3-0.5 5.2-0.8l1.8-0.3c1.1-0.2 2.2-0.3 3.2-0.5 1.3-0.2 2.9-0.5 4.7-0.8l7.8-1.4c0.8-0.2 1.7-0.3 2.5-0.5 0.7-0.1 1.5-0.3 2.2-0.4 0.2 0 0.5-0.1 0.7-0.2 1.6-0.3 3-0.7 4.2-0.8 0.4-0.1 0.7-0.1 1.1-0.2 17-3.7 34.3-8.5 51.3-14.3 0.1 0 0.2 0 0.2-0.1l1-0.4c0.8-0.3 1.5-0.5 1.9-0.7 0.4-0.1 0.8-0.2 1.2-0.4 9.7-3.5 18.8-7 27.7-10.8 1.4-0.6 2.8-1.2 4.3-1.8 1.3-0.6 2.6-1.2 4-1.7 1.9-0.8 3.6-1.6 5.1-2.3l1.3-0.6c0.1-0.1 0.2-0.1 0.4-0.2 0.6-0.3 1.2-0.6 1.8-0.8 1-0.4 2-0.9 3-1.4 9.8-4.7 19.9-10 30-15.8 4.8-2.8 9.4-5.5 14-8.4 0.6-0.3 1.1-0.7 1.7-1.1l8-5.1c0.1-0.1 0.2-0.1 0.3-0.2 15.5-10.2 30.7-21.5 45.2-33.8l4.2-3.6c1.3-1.1 2.6-2.3 3.9-3.4 0.2-0.2 0.4-0.3 0.6-0.5 0.6-0.5 1.1-1 1.7-1.5 0.7-0.7 1.5-1.3 2.2-2 5.2-4.7 10.6-9.8 16.2-15.4l3.8-3.8c2.7-2.7 5.2-5.4 7.6-8l0.4-0.4c3.8-4.1 7.5-8.2 11-12.3l0.1-0.1c13.6-15.7 26.1-32.3 37.3-49.3 2-2.9 3.8-5.8 5.6-8.6l1.5-2.4c0.2-0.3 0.4-0.7 0.6-1 0.4-0.6 0.8-1.3 1.2-1.9l0.1-0.1c2.1-3.3 4-6.6 5.9-9.9 13.3-23.1 24.8-47.7 34.1-73.1 0 0 0-0.1 0.1-0.2l3.3-9.3c0-0.1 0.1-0.2 0.1-0.3 4.8-14.1 8.5-27.2 11.6-40 1.2-5.2 2.4-10.4 3.5-15.3 0.6-2.9 1.1-5.6 1.6-8.3l0.6-3.3c0-0.2 0.1-0.4 0.1-0.5 0.1-1 0.3-1.9 0.5-2.9 0.4-2.1 0.7-4.2 1-6.5 0.2-1.2 0.4-2.6 0.6-4.1l1.1-8.3v-0.1c2.6-19.5 3.9-39.9 3.9-60.5-0.5-1.3-0.6-2.2-0.7-3.1z" fill="#006EF2" p-id="2734"></path></svg>